<svg width="128" height="128" viewBox="0 0 128 128" fill="none" xmlns="http://www.w3.org/2000/svg">
<mask id="path-1-inside-1_435_598" fill="white">
<path d="M64 0C99.3462 0 128 28.6538 128 64C128 99.3462 99.3462 128 64 128C28.6538 128 0 99.3462 0 64C0 28.6538 28.6538 0 64 0ZM64 32C46.3269 32 32 46.3269 32 64C32 81.6731 46.3269 96 64 96C81.6731 96 96 81.6731 96 64C96 46.3269 81.6731 32 64 32Z"/>
</mask>
<path d="M64 0V2C98.2417 2 126 29.7583 126 64H128H130C130 27.5492 100.451 -2 64 -2V0ZM128 64H126C126 98.2417 98.2417 126 64 126V128V130C100.451 130 130 100.451 130 64H128ZM64 128V126C29.7583 126 2 98.2417 2 64H0H-2C-2 100.451 27.5492 130 64 130V128ZM0 64H2C2 29.7583 29.7583 2 64 2V0V-2C27.5492 -2 -2 27.5492 -2 64H0ZM64 32V30C45.2223 30 30 45.2223 30 64H32H34C34 47.4315 47.4315 34 64 34V32ZM32 64H30C30 82.7777 45.2223 98 64 98V96V94C47.4315 94 34 80.5685 34 64H32ZM64 96V98C82.7777 98 98 82.7777 98 64H96H94C94 80.5685 80.5685 94 64 94V96ZM96 64H98C98 45.2223 82.7777 30 64 30V32V34C80.5685 34 94 47.4315 94 64H96Z" fill="white" mask="url(#path-1-inside-1_435_598)"/>
</svg>
